<?xml version="1.0"?>
<svg version="1.1" xmlns="http://www.w3.org/2000/svg" xmlns:xlink="http://www.w3.org/1999/xlink" width="300" height="300">
    <desc iVinci="yes" version="4.6" gridStep="10" showGrid="no" snapToGrid="no" codePlatform="0"/>
    <g id="Layer1" name="Layer 1" opacity="1">
        <g id="Shape1">
            <desc shapeID="1" type="0" basicInfo-basicType="4" basicInfo-roundedRectRadius="12" basicInfo-polygonSides="6" basicInfo-starPoints="5" bounding="rect(-46.5022,-46.5022,93.0045,93.0045)" text="" font-familyName="Helvetica" font-pixelSize="20" font-bold="0" font-underline="0" font-alignment="1" strokeStyle="0" markerStart="0" markerEnd="0" shadowEnabled="0" shadowOffsetX="0" shadowOffsetY="2" shadowBlur="4" shadowOpacity="160" blurEnabled="0" blurRadius="4" transform="matrix(0.706826,-0.442945,0.442945,0.706826,147.437,150.582)" pers-center="0,0" pers-size="0,0" pers-start="0,0" pers-end="0,0" locked="0" mesh="" flag=""/>
            <path id="shapePath1" d="M114.568,171.18 C103.192,153.027 108.686,129.089 126.839,117.713 C144.992,106.337 168.93,111.831 180.306,129.984 C191.682,148.137 186.188,172.075 168.035,183.451 C149.882,194.827 125.944,189.333 114.568,171.18 Z" style="stroke:#000000;stroke-opacity:1;stroke-width:1;stroke-linejoin:miter;stroke-miterlimit:2;stroke-linecap:round;fill-rule:evenodd;fill:#c7c7c7;fill-opacity:1;"/>
        </g>
        <g id="Shape2">
            <desc shapeID="2" type="0" basicInfo-basicType="0" basicInfo-roundedRectRadius="12" basicInfo-polygonSides="6" basicInfo-starPoints="5" bounding="rect(0,0,0,0)" text="" font-familyName="Helvetica" font-pixelSize="20" font-bold="0" font-underline="0" font-alignment="1" strokeStyle="0" markerStart="0" markerEnd="0" shadowEnabled="0" shadowOffsetX="0" shadowOffsetY="2" shadowBlur="4" shadowOpacity="160" blurEnabled="0" blurRadius="4" transform="matrix(0.819942,-0.513831,0.513831,0.819942,-45.6724,105.606)" pers-center="0,0" pers-size="0,0" pers-start="0,0" pers-end="0,0" locked="0" mesh="" flag=""/>
            <path id="shapePath2" d="M-45.6724,105.606 Z" style="stroke:#000000;stroke-opacity:1;stroke-width:1;stroke-linejoin:miter;stroke-miterlimit:2;stroke-linecap:round;fill-rule:evenodd;fill:#c7c7c7;fill-opacity:1;"/>
        </g>
        <g id="Shape3">
            <desc shapeID="3" type="0" basicInfo-basicType="0" basicInfo-roundedRectRadius="12" basicInfo-polygonSides="6" basicInfo-starPoints="5" bounding="rect(-145,-148.5,290,297)" text="" font-familyName="Helvetica" font-pixelSize="20" font-bold="0" font-underline="0" font-alignment="1" strokeStyle="0" markerStart="0" markerEnd="0" shadowEnabled="0" shadowOffsetX="0" shadowOffsetY="2" shadowBlur="4" shadowOpacity="160" blurEnabled="0" blurRadius="4" transform="matrix(0.819942,-0.513831,0.513831,0.819942,143.8,152.862)" pers-center="0,0" pers-size="0,0" pers-start="0,0" pers-end="0,0" locked="0" mesh="" flag=""/>
            <path id="shapePath3" d="M25.6788,228.597 C17.2006,215.068 11.0292,200.664 7.67836,186.206 L94.4282,166.101 C96.0244,171.381 98.0305,176.405 101.114,181.325 C108.821,193.624 120.934,202.02 133.452,205.595 L110.22,291.525 C76.2584,281.975 45.7182,260.575 25.6788,228.597 M186.978,192.607 C200.911,179.308 207.094,160.017 203.994,141.404 L289.875,123.557 C289.875,123.557 290.285,123.3 290.952,123.453 C300.857,172.059 285.327,222.901 248.392,256.896 C247.725,256.743 247.725,256.743 247.468,256.333 C239.509,248.188 186.978,192.607 186.978,192.607 M194.56,14.2805 L194.303,13.8705 L167.48,98.6252 C151.933,92.9512 134.037,94.4599 118.868,103.966 C114.768,106.535 111.335,109.257 108.16,112.389 L48.5388,46.4059 C55.3006,39.8846 62.9861,33.9263 71.5955,28.5311 C110.133,4.38107 155.208,0.685852 194.713,13.6136 L194.56,14.2805 Z" style="stroke:#000000;stroke-opacity:1;stroke-width:1;stroke-linejoin:miter;stroke-miterlimit:2;stroke-linecap:round;fill-rule:evenodd;fill:#c7c7c7;fill-opacity:1;"/>
        </g>
    </g>
</svg>
